<svg width="40" height="40" viewBox="0 0 40 40" fill="none" xmlns="http://www.w3.org/2000/svg">
<path d="M38.9998 30.9709C13.3332 35.3333 4.5808 15.3333 20.0445 1C-2.66676 2 -2.77606 24.245 4.5808 31.9377C18.6667 46.6667 38.9998 30.9709 38.9998 30.9709Z" fill="black"/>
<path d="M25.3333 8C24.9933 8 24.8233 7.8247 24.8233 7.4741V4.44622H21.8432C21.5032 4.44622 21.3333 4.28154 21.3333 3.95219C21.3333 3.62284 21.5032 3.45817 21.8432 3.45817H24.8233V0.525896C24.8233 0.175299 24.9933 0 25.3333 0C25.6732 0 25.8432 0.175299 25.8432 0.525896V3.45817H28.8233C29.1633 3.45817 29.3333 3.62284 29.3333 3.95219C29.3333 4.28154 29.1633 4.44622 28.8233 4.44622H25.8432V7.4741C25.8432 7.8247 25.6732 8 25.3333 8Z" fill="black"/>
<path d="M35.3333 14.6667C35.05 14.6667 34.9084 14.5206 34.9084 14.2284V11.7052H32.425C32.1417 11.7052 32 11.568 32 11.2935C32 11.019 32.1417 10.8818 32.425 10.8818H34.9084V8.43825C34.9084 8.14608 35.05 8 35.3333 8C35.6166 8 35.7583 8.14608 35.7583 8.43825V10.8818H38.2417C38.525 10.8818 38.6667 11.019 38.6667 11.2935C38.6667 11.568 38.525 11.7052 38.2417 11.7052H35.7583V14.2284C35.7583 14.5206 35.6166 14.6667 35.3333 14.6667Z" fill="black"/>
<path d="M22.0001 21.3333C21.7168 21.3333 21.5751 21.1872 21.5751 20.895V18.3718H19.0917C18.8084 18.3718 18.6667 18.2346 18.6667 17.9601C18.6667 17.6857 18.8084 17.5484 19.0917 17.5484H21.5751V15.1049C21.5751 14.8127 21.7168 14.6666 22.0001 14.6666C22.2834 14.6666 22.425 14.8127 22.425 15.1049V17.5484H24.9084C25.1918 17.5484 25.3334 17.6857 25.3334 17.9601C25.3334 18.2346 25.1918 18.3718 24.9084 18.3718H22.425V20.895C22.425 21.1872 22.2834 21.3333 22.0001 21.3333Z" fill="black"/>
<path d="M35.3333 28C35.05 28 34.9084 27.854 34.9084 27.5618V25.0386H32.425C32.1417 25.0386 32 24.9013 32 24.6269C32 24.3524 32.1417 24.2152 32.425 24.2152H34.9084V21.7716C34.9084 21.4795 35.05 21.3334 35.3333 21.3334C35.6166 21.3334 35.7583 21.4795 35.7583 21.7716V24.2152H38.2417C38.525 24.2152 38.6667 24.3524 38.6667 24.6269C38.6667 24.9013 38.525 25.0386 38.2417 25.0386H35.7583V27.5618C35.7583 27.854 35.6166 28 35.3333 28Z" fill="black"/>
</svg>
